<?xml version="1.0" encoding="UTF-8"?>
<svg version="1.1" xmlns="http://www.w3.org/2000/svg" width="215" height="225">
<path d="M0 0 C2.70005633 2.26601095 2.70005633 2.26601095 5.12890625 1.7578125 C5.93199219 1.54898438 6.73507813 1.34015625 7.5625 1.125 C15.49956229 -0.64264269 23.78180198 -1.41456317 31 3 C36.01004893 7.50904404 38.79743852 11.96157774 39.25 18.75 C39.1457063 23.30415811 38.1392251 27.60584604 37 32 C36.34 32 35.68 32 35 32 C32.97417524 39.86020007 32.65178306 47.26613075 32.609375 55.35546875 C32.58617187 56.29777344 32.56296875 57.24007812 32.5390625 58.2109375 C32.53084473 59.05962402 32.52262695 59.90831055 32.51416016 60.78271484 C32 63 32 63 30.17724609 64.77587891 C26.96477124 66.58204048 24.63097907 66.37561852 21 66 C17.72808708 64.64184747 15.50104494 63.50104494 13 61 C11.02418332 60.94918862 11.02418332 60.94918862 9 62 C8.2265625 63.0828125 8.2265625 63.0828125 7.4375 64.1875 C3.32948258 68.92752009 -2.53711509 71.45755302 -8.21875 73.98828125 C-10.33313754 75.01270561 -10.33313754 75.01270561 -12 78 C-11.56703016 82.64113282 -9.45257022 86.18380435 -7.25390625 90.20703125 C-4.33202038 96.71528171 -3.63701032 102.96195257 -3.625 110 C-3.60050781 110.75539063 -3.57601562 111.51078125 -3.55078125 112.2890625 C-3.51679978 118.88146793 -5.35973155 124.27722316 -10 129.0625 C-12 130 -12 130 -14.25 129.6875 C-14.8275 129.460625 -15.405 129.23375 -16 129 C-16.33 127.35 -16.66 125.7 -17 124 C-17.33 124 -17.66 124 -18 124 C-18.02578125 124.74765625 -18.0515625 125.4953125 -18.078125 126.265625 C-18.53296035 134.16322063 -18.53296035 134.16322063 -20.5 137.6875 C-24.24169537 139.65189007 -27.85463663 139.48816055 -32 139 C-32.66 138.67 -33.32 138.34 -34 138 C-34.6328125 135.05859375 -34.6328125 135.05859375 -35.125 131.4375 C-35.29257813 130.23996094 -35.46015625 129.04242188 -35.6328125 127.80859375 C-35.75398438 126.88175781 -35.87515625 125.95492187 -36 125 C-36.66 125 -37.32 125 -38 125 C-37.95875 126.093125 -37.9175 127.18625 -37.875 128.3125 C-38 132 -38 132 -40 135 C-44.50767131 137.65157136 -48.0607176 136.97166211 -53 136 C-55.51230213 133.48769787 -55.39844365 131.59796543 -55.74951172 128.17138672 C-56.12450746 124.92069262 -56.87382557 121.75967934 -57.5625 118.5625 C-58.73823153 112.66699606 -59.29594535 106.94948771 -59.3125 100.9375 C-59.31773682 100.24793213 -59.32297363 99.55836426 -59.32836914 98.84790039 C-59.26455838 94.20326776 -58.42652399 90.37050578 -57 86 C-58.57974609 85.87044922 -58.57974609 85.87044922 -60.19140625 85.73828125 C-67.76449365 85.02924365 -74.72278058 84.03327268 -81.875 81.375 C-87.47431378 79.33128035 -91.98601226 78.53121755 -97.92578125 78.921875 C-100 79 -100 79 -102 78 C-102 77.34 -102 76.68 -102 76 C-102.66 76 -103.32 76 -104 76 C-105.18359375 74.3203125 -105.18359375 74.3203125 -106.4375 72.125 C-108.17330794 69.08869645 -108.98654002 68.00897332 -112 66 C-111.7525 65.278125 -111.505 64.55625 -111.25 63.8125 C-110.69588196 60.86195162 -110.69588196 60.86195162 -112.75 58.3125 C-114.97162627 55.86758926 -114.97162627 55.86758926 -118 54 C-118 53.34 -118 52.68 -118 52 C-118.66 52 -119.32 52 -120 52 C-121.01532792 50.34262648 -122.01190805 48.67375389 -123 47 C-124.54370311 45.19451507 -126.13043731 43.42526058 -127.75 41.6875 C-128.64332031 40.71941406 -129.53664062 39.75132813 -130.45703125 38.75390625 C-131.29621094 37.84511719 -132.13539063 36.93632813 -133 36 C-139.15396758 29.13443874 -145.05807413 22.04864986 -151 15 C-149.68 14.34 -148.36 13.68 -147 13 C-146.69449219 13.44988281 -146.38898438 13.89976563 -146.07421875 14.36328125 C-142.51324828 19.36870172 -138.48438837 23.63616885 -134.1003418 27.93310547 C-130.85885931 31.11689078 -127.82086789 34.39173614 -124.87109375 37.84375 C-122.02580801 41.12265966 -119.08434809 44.3145205 -116.11499023 47.48120117 C-113.9107311 49.84454999 -111.87189813 52.17201559 -109.9375 54.76953125 C-106.40262235 59.56641248 -106.40262235 59.56641248 -100.98046875 61.48046875 C-97.78020107 61.48696664 -97.78020107 61.48696664 -94.734375 61.12109375 C-91.79451984 60.99090016 -90.4594954 61.4598874 -88 63 C-88 63.66 -88 64.32 -88 65 C-79.13044794 67.87661148 -70.08155696 69.92451656 -61 72 C-61.37258692 70.02489096 -61.37258692 70.02489096 -62 68 C-63.76591887 66.99083967 -63.76591887 66.99083967 -66 66 C-70.72348821 62.48250878 -73.73569218 58.89646173 -77 54 C-77.66 54.474375 -78.32 54.94875 -79 55.4375 C-83.35264018 57.70450009 -87.58276835 58.42301554 -92.5 57.5625 C-92.995 57.376875 -93.49 57.19125 -94 57 C-95.92554812 52.2931046 -96.04710213 49.25777772 -95.0625 44.25 C-93.55254991 36.43722598 -94.38986882 29.57613018 -96.125 21.875 C-97.43975 15.59009659 -97.26748411 9.95261191 -94.25 4.1875 C-90.34433567 -1.34552446 -86.69614019 -3.7723743 -80 -5 C-76.13480609 -5 -72.46855708 -4.74711059 -68.98828125 -2.9765625 C-66.46421492 -1.69770223 -64.85372163 -1.11563561 -62 -1 C-58.55939273 -2.42167798 -55.40680325 -4.05105621 -52.15283203 -5.84130859 C-34.76231485 -15.2684367 -15.39306265 -11.22410818 0 0 Z M-16 109 C-15 111 -15 111 -15 111 Z " fill="#A695B1" transform="translate(160,54)"/>
<path d="M0 0 C0.51949219 0.68449219 1.03898438 1.36898437 1.57421875 2.07421875 C4.45495441 5.54872924 7.5919055 8.65646275 10.8125 11.8125 C15.11287869 16.06939605 19.31854926 20.33131314 23.234375 24.94921875 C26.03469747 28.20180569 28.9501231 31.35133239 31.88574219 34.48193359 C34.08971683 36.84505904 36.12831359 39.17229987 38.0625 41.76953125 C41.59737765 46.56641248 41.59737765 46.56641248 47.01953125 48.48046875 C50.21979893 48.48696664 50.21979893 48.48696664 53.265625 48.12109375 C56.20548016 47.99090016 57.5405046 48.4598874 60 50 C60 50.66 60 51.32 60 52 C65.51866051 53.75650368 71.02817627 55.26202293 76.6875 56.5 C88.93234792 59.3124209 88.93234792 59.3124209 91.9375 64.0625 C93 67 93 67 93 69 C93.66 69 94.32 69 95 69 C96 72 96 72 95.0625 74.1875 C94.711875 74.785625 94.36125 75.38375 94 76 C93.34 76 92.68 76 92 76 C92 74.68 92 73.36 92 72 C91.23558594 72.04640625 90.47117187 72.0928125 89.68359375 72.140625 C79.05433914 72.49877076 70.42956288 69.9915795 60.35546875 66.87109375 C57.4088808 66.10614717 55.19561753 65.80579608 52.1875 65.9375 C48.19138756 66.09569378 48.19138756 66.09569378 46 65 C46 64.34 46 63.68 46 63 C45.34 63 44.68 63 44 63 C42.81640625 61.3203125 42.81640625 61.3203125 41.5625 59.125 C39.82669206 56.08869645 39.01345998 55.00897332 36 53 C36.2475 52.278125 36.495 51.55625 36.75 50.8125 C37.30411804 47.86195162 37.30411804 47.86195162 35.25 45.3125 C33.02837373 42.86758926 33.02837373 42.86758926 30 41 C30 40.34 30 39.68 30 39 C29.34 39 28.68 39 28 39 C26.98467208 37.34262648 25.98809195 35.67375389 25 34 C23.45629689 32.19451507 21.86956269 30.42526058 20.25 28.6875 C19.35667969 27.71941406 18.46335937 26.75132813 17.54296875 25.75390625 C16.70378906 24.84511719 15.86460938 23.93632813 15 23 C8.84603242 16.13443874 2.94192587 9.04864986 -3 2 C-2.01 1.34 -1.02 0.68 0 0 Z " fill="#92849C" transform="translate(12,67)"/>
<path d="M0 0 C6.01651883 4.51238912 7.43647222 10.87065323 9 18 C9.34584107 21.06933945 9.27767344 23.92925848 9 27 C8.91685547 28.33804688 8.91685547 28.33804688 8.83203125 29.703125 C8.30245363 36.69754637 8.30245363 36.69754637 6 39 C5.01 39 4.02 39 3 39 C2.67 37.68 2.34 36.36 2 35 C1.34 35.66 0.68 36.32 0 37 C0 34.69 0 32.38 0 30 C-0.66 33.63 -1.32 37.26 -2 41 C-3.485 41.495 -3.485 41.495 -5 42 C-6.37720782 37.50551939 -5.51295042 35.25411839 -3.5625 31.0625 C0.47400622 21.18927286 -0.57059164 11.36321062 -2 1 C-1.34 0.67 -0.68 0.34 0 0 Z M1 25 C2 27 2 27 2 27 Z " fill="#9A8BA7" transform="translate(143,138)"/>
<path d="M0 0 C0.51949219 0.68449219 1.03898438 1.36898437 1.57421875 2.07421875 C4.45495441 5.54872924 7.5919055 8.65646275 10.8125 11.8125 C15.1115291 16.0680601 19.31672265 20.32808292 23.23046875 24.9453125 C25.59183839 27.6872119 28.04750299 30.33997769 30.5 33 C31.44433953 34.02964616 32.38835623 35.05958852 33.33203125 36.08984375 C34.97101075 37.87760324 36.61346028 39.66219806 38.26171875 41.44140625 C38.89722656 42.14136719 39.53273437 42.84132812 40.1875 43.5625 C40.73792969 44.16191406 41.28835937 44.76132813 41.85546875 45.37890625 C43 47 43 47 43 50 C43.66 50 44.32 50 45 50 C45.33 50.66 45.66 51.32 46 52 C46.99 52.33 47.98 52.66 49 53 C50.45961383 54.63264644 51.84906752 56.32912023 53.1875 58.0625 C53.90292969 58.98160156 54.61835937 59.90070313 55.35546875 60.84765625 C55.89816406 61.55792969 56.44085938 62.26820313 57 63 C56.67 63.66 56.34 64.32 56 65 C53.17895779 64.65344956 52.2223774 64.28408713 50.4375 62.00390625 C49.963125 61.19824219 49.48875 60.39257812 49 59.5625 C46.9738333 56.13233192 45.64545181 54.5930328 42 53 C39 49.57142857 39 49.57142857 39 47 C38.443125 46.7525 37.88625 46.505 37.3125 46.25 C34.57589087 44.77075182 32.32349131 43.06532561 30 41 C30 40.34 30 39.68 30 39 C29.34 39 28.68 39 28 39 C26.98467208 37.34262648 25.98809195 35.67375389 25 34 C23.45629689 32.19451507 21.86956269 30.42526058 20.25 28.6875 C19.35667969 27.71941406 18.46335937 26.75132813 17.54296875 25.75390625 C16.70378906 24.84511719 15.86460938 23.93632813 15 23 C8.84603242 16.13443874 2.94192587 9.04864986 -3 2 C-2.01 1.34 -1.02 0.68 0 0 Z " fill="#808080" transform="translate(12,67)"/>
<path d="M0 0 C5.01004893 4.50904404 7.79743852 8.96157774 8.25 15.75 C8.1457063 20.30415811 7.1392251 24.60584604 6 29 C5.34 29 4.68 29 4 29 C3.67 30.65 3.34 32.3 3 34 C1.79361757 30.38085271 2.28317145 28.3627984 2.9375 24.625 C4.49082293 17.02277603 4.49082293 17.02277603 2.25 9.9375 C-0.59449936 6.18939765 -0.59449936 6.18939765 -4 3 C-7.02155135 2.6575478 -7.02155135 2.6575478 -10.1875 3.125 C-11.78658203 3.28355469 -11.78658203 3.28355469 -13.41796875 3.4453125 C-14.27003906 3.62835938 -15.12210938 3.81140625 -16 4 C-16.33 4.66 -16.66 5.32 -17 6 C-19.5625 6.625 -19.5625 6.625 -22 7 C-22.33 6.01 -22.66 5.02 -23 4 C-23.99 4 -24.98 4 -26 4 C-26.33 3.01 -26.66 2.02 -27 1 C-18.94331579 -4.14732602 -8.43952074 -5.16150947 0 0 Z " fill="#A497AF" transform="translate(191,57)"/>
<path d="M0 0 C5.63724636 4.42926499 7.97547343 12.10414808 9 19 C9.21065531 21.93851286 9.27601818 24.8672007 9.3125 27.8125 C9.34150391 28.58142578 9.37050781 29.35035156 9.40039062 30.14257812 C9.47366954 36.82223283 7.70810574 42.20726596 3 47.0625 C1 48 1 48 -1.25 47.6875 C-1.8275 47.460625 -2.405 47.23375 -3 47 C-3.33 45.35 -3.66 43.7 -4 42 C-4.66 42 -5.32 42 -6 42 C-5.67 38.7 -5.34 35.4 -5 32 C-4.34 32 -3.68 32 -3 32 C-3 33.65 -3 35.3 -3 37 C-2.34 36.34 -1.68 35.68 -1 35 C-0.01 36.65 0.98 38.3 2 40 C4.8476747 37.1523253 3.97914261 28.47445165 4.05566406 24.5390625 C3.87832735 16.45001949 2.55686828 7.67060483 0 0 Z " fill="#AFA3BB" transform="translate(147,136)"/>
<path d="M0 0 C0.66 0.99 1.32 1.98 2 3 C0.68 3 -0.64 3 -2 3 C-2 3.66 -2 4.32 -2 5 C-5.27100872 8.27100872 -9.49732271 9.44525536 -14 10 C-14.99 9.67 -15.98 9.34 -17 9 C-17.66 11.31 -18.32 13.62 -19 16 C-19.66 16 -20.32 16 -21 16 C-20.67 20.29 -20.34 24.58 -20 29 C-20.99 28.67 -21.98 28.34 -23 28 C-24.22989087 24.88617224 -24.16515494 21.69100747 -24.1875 18.375 C-24.20167969 17.41335937 -24.21585937 16.45171875 -24.23046875 15.4609375 C-24 13 -24 13 -22 11 C-22.0825 10.236875 -22.165 9.47375 -22.25 8.6875 C-22 6 -22 6 -19.4375 3.3125 C-13.67116647 -0.95835918 -6.87656395 -2.08677806 0 0 Z " fill="#95809D" transform="translate(89,50)"/>
<path d="M0 0 C3.1261162 3.39406901 5.95593037 6.7010343 6.046875 11.4453125 C4.27340824 27.45318352 4.27340824 27.45318352 2 32 C1.84733388 33.73868744 1.75067404 35.48247501 1.68359375 37.2265625 C1.64169922 38.2578125 1.59980469 39.2890625 1.55664062 40.3515625 C1.51732422 41.43179688 1.47800781 42.51203125 1.4375 43.625 C1.39431641 44.71296875 1.35113281 45.8009375 1.30664062 46.921875 C1.2003547 49.6144517 1.09831943 52.30712253 1 55 C0.01 55 -0.98 55 -2 55 C-2.19421438 52.04196565 -2.38066186 49.08379837 -2.5625 46.125 C-2.61857422 45.28324219 -2.67464844 44.44148438 -2.73242188 43.57421875 C-2.78076172 42.76855469 -2.82910156 41.96289062 -2.87890625 41.1328125 C-2.9260376 40.38918457 -2.97316895 39.64555664 -3.02172852 38.87939453 C-3 37 -3 37 -2 35 C-2.66 35 -3.32 35 -4 35 C-3.42724319 30.99070234 -2.09160006 28.43022411 0 25 C2.52245406 19.2544102 2.61975527 13.18398001 3 7 C2.34 7 1.68 7 1 7 C0.34 6.01 -0.32 5.02 -1 4 C-4.5799059 2.18222395 -7.83383256 1.66261451 -11.8125 1.375 C-12.78832031 1.30023438 -13.76414063 1.22546875 -14.76953125 1.1484375 C-15.50558594 1.09945312 -16.24164063 1.05046875 -17 1 C-12.95441829 -3.04558171 -4.71417453 -3.05034823 0 0 Z " fill="#95829C" transform="translate(190,61)"/>
<path d="M0 0 C1.60747599 3.21495197 1.46577111 6.51337055 1 10 C-0.5625 13.0625 -0.5625 13.0625 -3 15 C-6.6875 14.9375 -6.6875 14.9375 -10 14 C-11.23050689 11.53898622 -10.98600075 10.27573817 -10.6875 7.5625 C-10.60886719 6.78003906 -10.53023438 5.99757813 -10.44921875 5.19140625 C-10 3 -10 3 -8 0 C-4.69693408 -1.10102197 -3.28414305 -0.95067299 0 0 Z " fill="#403A40" transform="translate(108,73)"/>
<path d="M0 0 C0.66 0 1.32 0 2 0 C5.38369852 6.76739704 9.00045528 15.87571686 7.51953125 23.4609375 C6.6875 25.375 6.6875 25.375 5 28 C4.34 26.68 3.68 25.36 3 24 C2.01 28.95 1.02 33.9 0 39 C-1.485 39.495 -1.485 39.495 -3 40 C-4.37720782 35.50551939 -3.51295042 33.25411839 -1.5625 29.0625 C2.34006746 19.5276953 1.60090083 10.00563018 0 0 Z " fill="#877791" transform="translate(141,140)"/>
<path d="M0 0 C2.31 0 4.62 0 7 0 C7.33 4.95 7.66 9.9 8 15 C5 17 5 17 2.875 16.8125 C2.25625 16.544375 1.6375 16.27625 1 16 C0.67 15.01 0.34 14.02 0 13 C-0.66 13 -1.32 13 -2 13 C-2.05447047 11.58376784 -2.09300508 10.16691809 -2.125 8.75 C-2.14820313 7.96109375 -2.17140625 7.1721875 -2.1953125 6.359375 C-1.9828378 3.79268059 -1.28654105 2.2083933 0 0 Z " fill="#373337" transform="translate(148,75)"/>
<path d="M0 0 C1.48031971 4.99019181 1.00786065 9.91358783 0.8125 15.0625 C0.79380859 16.06861328 0.77511719 17.07472656 0.75585938 18.11132812 C0.71912109 19.07619141 0.68238281 20.04105469 0.64453125 21.03515625 C0.61721924 21.9156665 0.58990723 22.79617676 0.56176758 23.70336914 C0 26 0 26 -1.8293457 27.78686523 C-5.03874976 29.58053622 -7.37762245 29.37472871 -11 29 C-16.18104791 27.17139486 -18.27795616 24.71122972 -21 20 C-17.62537285 20.54723683 -15.91765 21.0549 -13 23 C-10.9507906 23.45139459 -10.9507906 23.45139459 -8.8125 23.625 C-7.554375 23.74875 -6.29625 23.8725 -5 24 C-5 19.05 -5 14.1 -5 9 C-4.67 9 -4.34 9 -4 9 C-3.67 13.95 -3.34 18.9 -3 24 C-2.67 24 -2.34 24 -2 24 C-1.97494385 23.34402832 -1.9498877 22.68805664 -1.92407227 22.01220703 C-1.8082674 19.04959817 -1.68547114 16.08731969 -1.5625 13.125 C-1.52318359 12.09246094 -1.48386719 11.05992188 -1.44335938 9.99609375 C-1.40146484 9.00996094 -1.35957031 8.02382812 -1.31640625 7.0078125 C-1.27974854 6.09660645 -1.24309082 5.18540039 -1.20532227 4.24658203 C-1 2 -1 2 0 0 Z " fill="#99879D" transform="translate(192,91)"/>
<path d="M0 0 C0.50917969 0.680625 1.01835937 1.36125 1.54296875 2.0625 C3.4574548 4.35136091 5.33173963 6.33529264 7.48828125 8.375 C8.11154297 8.96796875 8.73480469 9.5609375 9.37695312 10.171875 C10.67767688 11.40040924 11.98779 12.61907095 13.30664062 13.828125 C15.03473449 15.48940645 16.6135735 17.04378531 18 19 C17.91796875 21.9375 17.91796875 21.9375 17 24 C13.20351619 20.24554368 9.51193193 16.4090216 5.875 12.5 C5.35035156 11.94441406 4.82570313 11.38882813 4.28515625 10.81640625 C1.41068981 7.72362591 -0.97553375 4.74177211 -3 1 C-2.01 0.67 -1.02 0.34 0 0 Z " fill="#868686" transform="translate(12,67)"/>
<path d="M0 0 C0.66 0 1.32 0 2 0 C2 2.97 2 5.94 2 9 C3.32 8.67 4.64 8.34 6 8 C5.42655063 10.86724686 5.1385485 11.8614515 3 14 C0.375 14.125 0.375 14.125 -2 14 C-3.25127906 10.45332822 -2.72285053 8.27746562 -1.5625 4.75 C-1.27503906 3.85796875 -0.98757812 2.9659375 -0.69140625 2.046875 C-0.46324219 1.37140625 -0.23507813 0.6959375 0 0 Z " fill="#2F2830" transform="translate(102,74)"/>
<path d="M0 0 C0.66 0 1.32 0 2 0 C4.1519437 3.22791555 4.20086443 4.28400809 4 8 C5.65 8.33 7.3 8.66 9 9 C8.67 10.98 8.34 12.96 8 15 C8.99 15.33 9.98 15.66 11 16 C11 16.66 11 17.32 11 18 C10.34 18 9.68 18 9 18 C9 17.34 9 16.68 9 16 C8.34 16 7.68 16 7 16 C5.81640625 14.3203125 5.81640625 14.3203125 4.5625 12.125 C2.82669206 9.08869645 2.01345998 8.00897332 -1 6 C-0.67 4.02 -0.34 2.04 0 0 Z " fill="#AFA9B5" transform="translate(49,114)"/>
<path d="M0 0 C1.9375 1.46875 1.9375 1.46875 2.765625 4.7265625 C2.90484375 6.00273437 3.0440625 7.27890625 3.1875 8.59375 C3.33703125 9.87507812 3.4865625 11.15640625 3.640625 12.4765625 C3.78757812 13.95769531 3.78757812 13.95769531 3.9375 15.46875 C3.2775 15.46875 2.6175 15.46875 1.9375 15.46875 C1.2775 11.17875 0.6175 6.88875 -0.0625 2.46875 C-0.7225 2.46875 -1.3825 2.46875 -2.0625 2.46875 C-2.02125 3.561875 -1.98 4.655 -1.9375 5.78125 C-2.0625 9.46875 -2.0625 9.46875 -4.0625 12.46875 C-5.0525 12.46875 -6.0425 12.46875 -7.0625 12.46875 C-6.7325 11.47875 -6.4025 10.48875 -6.0625 9.46875 C-5.4025 9.79875 -4.7425 10.12875 -4.0625 10.46875 C-4.0625 7.49875 -4.0625 4.52875 -4.0625 1.46875 C-4.7225 1.13875 -5.3825 0.80875 -6.0625 0.46875 C-3.75249399 -0.35625215 -2.39807025 -0.61768476 0 0 Z " fill="#B7AEBC" transform="translate(124.0625,176.53125)"/>
<path d="M0 0 C0.99 0.33 1.98 0.66 3 1 C2.25 3.4375 2.25 3.4375 1 6 C-0.6875 6.75 -0.6875 6.75 -3 7 C-4.19625 7.226875 -5.3925 7.45375 -6.625 7.6875 C-7.73875 7.790625 -8.8525 7.89375 -10 8 C-10.66 7.34 -11.32 6.68 -12 6 C-9.43488754 3.43488754 -7.34211929 3.27631868 -3.875 2.5625 C-1.77917672 2.09524327 -1.77917672 2.09524327 0 0 Z " fill="#AA9CB5" transform="translate(157,88)"/>
<path d="M0 0 C6.19321353 3.24406423 8.74235446 7.9467863 12 14 C7.2265625 14.1640625 7.2265625 14.1640625 5.1875 12.6875 C4 11 4 11 4 8 C3.34 7.67 2.68 7.34 2 7 C2.66 6.34 3.32 5.68 4 5 C2.68 4.67 1.36 4.34 0 4 C0 2.68 0 1.36 0 0 Z " fill="#7F7584" transform="translate(53,118)"/>
<path d="M0 0 C0.33 0 0.66 0 1 0 C1.6104394 8.88528458 1.6104394 8.88528458 -0.4375 12.625 C-4.23657069 14.66352574 -7.77785621 14.32478029 -12 14 C-12 13.67 -12 13.34 -12 13 C-9.36 13 -6.72 13 -4 13 C-3.87625 11.88625 -3.7525 10.7725 -3.625 9.625 C-3 6 -3 6 -1 4 C-0.3574765 1.93125966 -0.3574765 1.93125966 0 0 Z " fill="#C0B6C8" transform="translate(140,179)"/>
<path d="M0 0 C1.2062252 3.61867559 1.10816918 6.92506251 1.0625 10.6875 C1.05798828 11.38939453 1.05347656 12.09128906 1.04882812 12.81445312 C1.03706927 14.54300538 1.01913454 16.27151365 1 18 C0.01 17.67 -0.98 17.34 -2 17 C-3.21921083 13.89526544 -3.19653315 10.68103348 -3.25 7.375 C-3.27578125 6.41335937 -3.3015625 5.45171875 -3.328125 4.4609375 C-3.21984375 3.64882812 -3.1115625 2.83671875 -3 2 C-2.01 1.34 -1.02 0.68 0 0 Z " fill="#908098" transform="translate(68,61)"/>
<path d="M0 0 C4.51617599 -0.07654536 8.59085217 -0.10228696 13 1 C12.67 2.32 12.34 3.64 12 5 C6.71502591 5.44041451 6.71502591 5.44041451 4 5 C1.5 2.5 1.5 2.5 0 0 Z " fill="#82758C" transform="translate(88,126)"/>
<path d="M0 0 C1.65 0 3.3 0 5 0 C5 2.97 5 5.94 5 9 C4.34 9 3.68 9 3 9 C2.67 9.66 2.34 10.32 2 11 C1.01 10.67 0.02 10.34 -1 10 C-0.67 9.01 -0.34 8.02 0 7 C0.03954234 4.66700175 0.04401732 2.33291811 0 0 Z " fill="#867893" transform="translate(115,178)"/>
<path d="M0 0 C0 0.66 0 1.32 0 2 C-2 4 -2 4 -4 5 C-4.33 5.66 -4.66 6.32 -5 7 C-6.97522846 8.04808041 -8.97481509 9.0520411 -11 10 C-11.33 8.68 -11.66 7.36 -12 6 C-10.37829621 4.99466333 -8.75252763 3.99588093 -7.125 3 C-5.76761719 2.1646875 -5.76761719 2.1646875 -4.3828125 1.3125 C-2 0 -2 0 0 0 Z " fill="#BCB2C4" transform="translate(109,48)"/>
<path d="M0 0 C0.66 0 1.32 0 2 0 C3.25955231 3.77865693 2.48087189 5.03411786 1.0625 8.6875 C0.68222656 9.68136719 0.30195312 10.67523438 -0.08984375 11.69921875 C-0.39019531 12.45847656 -0.69054687 13.21773437 -1 14 C-3 12 -3 12 -3.046875 9.94140625 C-2.89992188 8.76384766 -2.89992188 8.76384766 -2.75 7.5625 C-2.66234375 6.78003906 -2.5746875 5.99757813 -2.484375 5.19140625 C-2 3 -2 3 0 0 Z " fill="#554D58" transform="translate(100,73)"/>
<path d="M0 0 C0.66 0.33 1.32 0.66 2 1 C1.979375 1.94875 1.95875 2.8975 1.9375 3.875 C1.77448174 6.90666283 1.77448174 6.90666283 3 9 C2.34 9 1.68 9 1 9 C0.67 9.99 0.34 10.98 0 12 C-2.94389782 13.17755913 -3.89953913 13.03348696 -7 12 C-7 11.34 -7 10.68 -7 10 C-6.030625 9.649375 -5.06125 9.29875 -4.0625 8.9375 C-0.60565398 7.24996333 -0.60565398 7.24996333 -0.125 3.3125 C-0.08375 2.219375 -0.0425 1.12625 0 0 Z " fill="#98879D" transform="translate(82,97)"/>
<path d="M0 0 C1.50433594 0.01353516 1.50433594 0.01353516 3.0390625 0.02734375 C3.80992188 0.03894531 4.58078125 0.05054688 5.375 0.0625 C5.705 0.7225 6.035 1.3825 6.375 2.0625 C5.055 2.0625 3.735 2.0625 2.375 2.0625 C2.375 2.7225 2.375 3.3825 2.375 4.0625 C-0.925 3.7325 -4.225 3.4025 -7.625 3.0625 C-7.625 2.4025 -7.625 1.7425 -7.625 1.0625 C-4.98041621 -0.25979189 -2.94738699 -0.03427194 0 0 Z " fill="#988CA3" transform="translate(84.625,50.9375)"/>
<path d="M0 0 C0.33 0 0.66 0 1 0 C1.05413245 2.89608593 1.09373641 5.79115195 1.125 8.6875 C1.15013672 9.91243164 1.15013672 9.91243164 1.17578125 11.16210938 C1.2114802 15.57092929 1.07580814 18.98731576 -1 23 C-1.33 23 -1.66 23 -2 23 C-2.02698189 21.37509046 -2.04638757 19.75005367 -2.0625 18.125 C-2.07410156 17.22007812 -2.08570313 16.31515625 -2.09765625 15.3828125 C-2 13 -2 13 -1 11 C-0.7724985 9.12943209 -0.59037189 7.25314042 -0.4375 5.375 C-0.35371094 4.37210938 -0.26992187 3.36921875 -0.18359375 2.3359375 C-0.12300781 1.56507813 -0.06242188 0.79421875 0 0 Z " fill="#D2C9D9" transform="translate(155,155)"/>
<path d="M0 0 C4.48873309 3.52686171 6.58485642 8.58251782 8 14 C7.60546875 16.3125 7.60546875 16.3125 7 18 C6.34 16.35 5.68 14.7 5 13 C4.34 13 3.68 13 3 13 C2.86722656 12.31292969 2.73445312 11.62585938 2.59765625 10.91796875 C2.42105469 10.01691406 2.24445313 9.11585938 2.0625 8.1875 C1.88847656 7.29417969 1.71445313 6.40085938 1.53515625 5.48046875 C1.02258847 2.88602829 1.02258847 2.88602829 0 0 Z " fill="#DED7E1" transform="translate(147,136)"/>
<path d="M0 0 C0.66 0 1.32 0 2 0 C2 1.65 2 3.3 2 5 C2.66 4.34 3.32 3.68 4 3 C4 6.3 4 9.6 4 13 C3.01 13.33 2.02 13.66 1 14 C1 12.35 1 10.7 1 9 C0.01 9.495 0.01 9.495 -1 10 C-0.67 6.7 -0.34 3.4 0 0 Z " fill="#BCB3C3" transform="translate(142,168)"/>
<path d="M0 0 C6.00738007 3.4095941 6.00738007 3.4095941 8 6 C8.6875 8.6875 8.6875 8.6875 9 11 C2.99261993 7.5904059 2.99261993 7.5904059 1 5 C0.3125 2.3125 0.3125 2.3125 0 0 Z " fill="#6D6D6D" transform="translate(28,87)"/>
<path d="M0 0 C0.33 0 0.66 0 1 0 C1 2.64 1 5.28 1 8 C2.32 7.34 3.64 6.68 5 6 C4.49396008 8.16874252 4.00016187 9.99967627 3 12 C1.68 11.67 0.36 11.34 -1 11 C-1.33 9.02 -1.66 7.04 -2 5 C-1.34 5 -0.68 5 0 5 C0 3.35 0 1.7 0 0 Z " fill="#2E292D" transform="translate(149,79)"/>
<path d="M0 0 C0.33 0 0.66 0 1 0 C1.02725341 1.7290774 1.04650987 3.45828176 1.0625 5.1875 C1.07410156 6.15042969 1.08570313 7.11335938 1.09765625 8.10546875 C1.00486622 10.85576513 0.62111685 13.32479591 0 16 C-0.66 16 -1.32 16 -2 16 C-2.33 17.65 -2.66 19.3 -3 21 C-4.08828929 17.73513213 -3.89901381 16.63009917 -3.125 13.375 C-2.94195312 12.57835938 -2.75890625 11.78171875 -2.5703125 10.9609375 C-2 9 -2 9 -1 8 C-0.76924918 6.65252916 -0.58846937 5.29622435 -0.4375 3.9375 C-0.2209375 1.9884375 -0.2209375 1.9884375 0 0 Z " fill="#C6BECB" transform="translate(197,70)"/>
<path d="M0 0 C1.485 0.99 1.485 0.99 3 2 C3.1875 5.125 3.1875 5.125 3 8 C2.34 7.67 1.68 7.34 1 7 C1.02320312 7.68707031 1.04640625 8.37414062 1.0703125 9.08203125 C1.08835937 9.98308594 1.10640625 10.88414063 1.125 11.8125 C1.14820312 12.70582031 1.17140625 13.59914063 1.1953125 14.51953125 C1 17 1 17 -1 20 C-1.02689449 17.04160645 -1.04678741 14.08345573 -1.0625 11.125 C-1.07087891 10.28324219 -1.07925781 9.44148438 -1.08789062 8.57421875 C-1.09111328 7.76855469 -1.09433594 6.96289062 -1.09765625 6.1328125 C-1.10289307 5.38918457 -1.10812988 4.64555664 -1.11352539 3.87939453 C-1 2 -1 2 0 0 Z " fill="#B5A9BA" transform="translate(67,76)"/>
<path d="M0 0 C3.3 0.99 6.6 1.98 10 3 C7.09907498 4.93395001 6.10325263 5.30131941 2.8125 5.625 C1.554375 5.74875 0.29625 5.8725 -1 6 C-1.042721 4.33388095 -1.04063832 2.66617115 -1 1 C-0.67 0.67 -0.34 0.34 0 0 Z " fill="#A094A6" transform="translate(72,119)"/>
<path d="M0 0 C-0.33 0.66 -0.66 1.32 -1 2 C-3.33333333 2.66666667 -5.66666667 3.33333333 -8 4 C-8.33 4.66 -8.66 5.32 -9 6 C-9.66 6 -10.32 6 -11 6 C-12.625 4 -12.625 4 -14 2 C-9.35150485 -0.3992233 -5.08913926 -0.19957409 0 0 Z " fill="#C0B9C7" transform="translate(123,45)"/>
<path d="M0 0 C1 2 1 2 0.0390625 4.8984375 C-0.42757812 6.04570312 -0.89421875 7.19296875 -1.375 8.375 C-3.50438332 13.5870953 -3.50438332 13.5870953 -5 19 C-6.39457694 16.21084611 -6.1821922 14.09726736 -6 11 C-5 8.125 -5 8.125 -4 6 C-3.34 6 -2.68 6 -2 6 C-1.34 4.02 -0.68 2.04 0 0 Z " fill="#8F809B" transform="translate(142,160)"/>
<path d="M0 0 C1.65 0.33 3.3 0.66 5 1 C5.33 1.99 5.66 2.98 6 4 C6.99 4.66 7.98 5.32 9 6 C3.54520815 5.43179252 -0.91059256 4.05362055 -6 2 C-2.25 0.875 -2.25 0.875 0 2 C0 1.34 0 0.68 0 0 Z " fill="#B4ADBD" transform="translate(77,131)"/>
<path d="M0 0 C0.103125 0.61875 0.20625 1.2375 0.3125 1.875 C0.87525373 4.36526484 0.87525373 4.36526484 4 6 C3.38125 6.28875 2.7625 6.5775 2.125 6.875 C-0.13325765 7.93720042 -0.13325765 7.93720042 -2 10 C-3.32 8.68 -4.64 7.36 -6 6 C-5.195625 5.38125 -4.39125 4.7625 -3.5625 4.125 C-0.96125481 2.25835959 -0.96125481 2.25835959 0 0 Z M-3 5 C-3.33 5.66 -3.66 6.32 -4 7 C-3.34 7 -2.68 7 -2 7 C-2.33 6.34 -2.66 5.68 -3 5 Z " fill="#C4B5CE" transform="translate(150,121)"/>
<path d="M0 0 C1.90294128 1.60168408 2.90495491 2.48389495 3.36328125 4.97265625 C3.22222222 10.77777778 3.22222222 10.77777778 1 13 C0 12 0 12 -0.09765625 9.27734375 C-0.08605469 8.17519531 -0.07445312 7.07304688 -0.0625 5.9375 C-0.05347656 4.83277344 -0.04445312 3.72804688 -0.03515625 2.58984375 C-0.02355469 1.73519531 -0.01195312 0.88054687 0 0 Z " fill="#776E7D" transform="translate(155,76)"/>
<path d="M0 0 C0.33 0 0.66 0 1 0 C1.53293835 1.74635165 2.05090663 3.49727652 2.5625 5.25 C2.85253906 6.22453125 3.14257812 7.1990625 3.44140625 8.203125 C3.99249836 10.96243932 3.93789609 12.3912824 3 15 C2.32591692 13.73308493 1.66099503 12.46129251 1 11.1875 C0.443125 10.12595703 0.443125 10.12595703 -0.125 9.04296875 C-1 7 -1 7 -1 4 C-1.66 3.67 -2.32 3.34 -3 3 C-2.34 3 -1.68 3 -1 3 C-0.67 2.01 -0.34 1.02 0 0 Z " fill="#B7ABC2" transform="translate(146,133)"/>
<path d="M0 0 C2.12472576 -0.05386629 4.24983652 -0.09273071 6.375 -0.125 C7.55835938 -0.14820312 8.74171875 -0.17140625 9.9609375 -0.1953125 C13 0 13 0 15 2 C12.36 2.33 9.72 2.66 7 3 C7 3.33 7 3.66 7 4 C5.35 4 3.7 4 2 4 C2 3.34 2 2.68 2 2 C1.34 2 0.68 2 0 2 C0 1.34 0 0.68 0 0 Z " fill="#ADA6B1" transform="translate(55,115)"/>
<path d="M0 0 C3.39393978 1.40438887 5.08345227 2.86383098 7 6 C7.29296875 8.578125 7.29296875 8.578125 7.1875 11.25 C7.16042969 12.14203125 7.13335937 13.0340625 7.10546875 13.953125 C7.07066406 14.62859375 7.03585938 15.3040625 7 16 C6.34 16.33 5.68 16.66 5 17 C5.04640625 16.41992188 5.0928125 15.83984375 5.140625 15.2421875 C5.40423002 9.53702167 4.69915497 6.59591981 1 2 C0.67 1.34 0.34 0.68 0 0 Z " fill="#9D8EA4" transform="translate(190,62)"/>
<path d="M0 0 C2.475 0.495 2.475 0.495 5 1 C5 1.99 5 2.98 5 4 C5.66 4 6.32 4 7 4 C7.33 4.99 7.66 5.98 8 7 C6.68 7 5.36 7 4 7 C2.02 3.535 2.02 3.535 0 0 Z " fill="#423C45" transform="translate(50,113)"/>
<path d="M0 0 C0.66 0 1.32 0 2 0 C1.67 3.63 1.34 7.26 1 11 C0.34 11 -0.32 11 -1 11 C-1.66 11.66 -2.32 12.32 -3 13 C-2.343621 8.51474352 -1.29925791 4.33085971 0 0 Z " fill="#353133" transform="translate(102,74)"/>
<path d="M0 0 C0 0.66 0 1.32 0 2 C0.66 2.33 1.32 2.66 2 3 C2 3.99 2 4.98 2 6 C1.01 6.33 0.02 6.66 -1 7 C-2.65 5.02 -4.3 3.04 -6 1 C-4 0 -4 0 0 0 Z " fill="#B6A7C0" transform="translate(158,72)"/>
<path d="M0 0 C-2.66666667 2.66666667 -5.33333333 5.33333333 -8 8 C-8.66 7.67 -9.32 7.34 -10 7 C-10 6.34 -10 5.68 -10 5 C-9.34 5 -8.68 5 -8 5 C-7.731875 4.195625 -7.46375 3.39125 -7.1875 2.5625 C-6.5996875 1.2940625 -6.5996875 1.2940625 -6 0 C-3 -1 -3 -1 0 0 Z " fill="#D3CBD7" transform="translate(173,113)"/>
<path d="M0 0 C0.33 0 0.66 0 1 0 C1.33 4.95 1.66 9.9 2 15 C1.01 15.66 0.02 16.32 -1 17 C-1.99 16.67 -2.98 16.34 -4 16 C-3.34 16 -2.68 16 -2 16 C-0.89485234 12.68455701 -0.67892369 9.79589889 -0.4375 6.3125 C-0.35371094 5.13300781 -0.26992187 3.95351562 -0.18359375 2.73828125 C-0.12300781 1.83464844 -0.06242188 0.93101563 0 0 Z " fill="#484149" transform="translate(154,75)"/>
<path d="M0 0 C0.99 0.33 1.98 0.66 3 1 C2.67 3.31 2.34 5.62 2 8 C1.34 8 0.68 8 0 8 C-0.33 9.32 -0.66 10.64 -1 12 C-1.02712066 10.56260487 -1.04645067 9.12506137 -1.0625 7.6875 C-1.07410156 6.88699219 -1.08570313 6.08648437 -1.09765625 5.26171875 C-1 3 -1 3 0 0 Z " fill="#47404C" transform="translate(147,76)"/>
<path d="M0 0 C4 4.625 4 4.625 4 8 C0.17053157 6.54744301 -1.12050295 4.57104439 -3 1 C-2.01 0.67 -1.02 0.34 0 0 Z " fill="#969696" transform="translate(12,67)"/>
<path d="M0 0 C1.65 1.65 3.3 3.3 5 5 C4.34 6.32 3.68 7.64 3 9 C1.35 7.02 -0.3 5.04 -2 3 C-1.34 2.67 -0.68 2.34 0 2 C0 1.34 0 0.68 0 0 Z " fill="#878787" transform="translate(36,94)"/>
<path d="M0 0 C0.33 0 0.66 0 1 0 C1.04898438 0.62648438 1.09796875 1.25296875 1.1484375 1.8984375 C1.22320312 2.71570313 1.29796875 3.53296875 1.375 4.375 C1.44460937 5.18710938 1.51421875 5.99921875 1.5859375 6.8359375 C1.82892588 9.20334191 1.82892588 9.20334191 4 11 C3.67 11.99 3.34 12.98 3 14 C2.34 14 1.68 14 1 14 C-0.79217969 8.83430559 -1.12029814 5.48946087 0 0 Z " fill="#C7C0CD" transform="translate(65,97)"/>
<path d="M0 0 C0.99 0 1.98 0 3 0 C3 2.31 3 4.62 3 7 C2.01 7.33 1.02 7.66 0 8 C0 5.36 0 2.72 0 0 Z " fill="#40413C" transform="translate(150,79)"/>
<path d="M0 0 C0.33 0 0.66 0 1 0 C1.05416188 1.60379341 1.09286638 3.20811406 1.125 4.8125 C1.14820313 5.70582031 1.17140625 6.59914062 1.1953125 7.51953125 C1 10 1 10 -1 13 C-1.66 13 -2.32 13 -3 13 C-3 12.01 -3 11.02 -3 10 C-2.34 10 -1.68 10 -1 10 C-0.67 6.7 -0.34 3.4 0 0 Z " fill="#DAD3E1" transform="translate(140,179)"/>
<path d="M0 0 C2.0625 0.4375 2.0625 0.4375 4 1 C3.1875 2.9375 3.1875 2.9375 2 5 C1.01 5.33 0.02 5.66 -1 6 C-1.042721 4.33388095 -1.04063832 2.66617115 -1 1 C-0.67 0.67 -0.34 0.34 0 0 Z " fill="#B8B1C0" transform="translate(149,177)"/>
<path d="M0 0 C1.65 0.33 3.3 0.66 5 1 C4.67 2.32 4.34 3.64 4 5 C2.02 5 0.04 5 -2 5 C-1.01 4.67 -0.02 4.34 1 4 C0.67 2.68 0.34 1.36 0 0 Z " fill="#B5AEBE" transform="translate(98,122)"/>
<path d="M0 0 C2.4375 0.8125 2.4375 0.8125 5 2 C5.33 2.99 5.66 3.98 6 5 C4.125 5.625 4.125 5.625 2 6 C1.34 5.34 0.68 4.68 0 4 C0 2.68 0 1.36 0 0 Z " fill="#616161" transform="translate(47,108)"/>
<path d="M0 0 C0.33 0 0.66 0 1 0 C1.1953125 6.0546875 1.1953125 6.0546875 1 8 C0.34 8.66 -0.32 9.32 -1 10 C-2.46726798 6.18510326 -1.43336419 3.70988378 0 0 Z " fill="#9E8FAC" transform="translate(150,167)"/>
<path d="M0 0 C2.31 0 4.62 0 7 0 C6.67 1.32 6.34 2.64 6 4 C4.35 3.67 2.7 3.34 1 3 C0.67 2.01 0.34 1.02 0 0 Z " fill="#776B82" transform="translate(94,127)"/>
<path d="M0 0 C2.475 0.495 2.475 0.495 5 1 C5.66 2.98 6.32 4.96 7 7 C1.125 3.375 1.125 3.375 0 0 Z " fill="#B6AEC0" transform="translate(184,55)"/>
<path d="M0 0 C1.65 0 3.3 0 5 0 C5 1.32 5 2.64 5 4 C5.66 4.33 6.32 4.66 7 5 C6.01 6.485 6.01 6.485 5 8 C4.34 8 3.68 8 3 8 C3.33 5.69 3.66 3.38 4 1 C2.68 0.67 1.36 0.34 0 0 Z " fill="#BCB2C2" transform="translate(99,139)"/>
<path d="M0 0 C0.99 0.33 1.98 0.66 3 1 C2.25 3.4375 2.25 3.4375 1 6 C-1.125 6.8125 -1.125 6.8125 -3 7 C-2.34 6.67 -1.68 6.34 -1 6 C-0.34227572 2.97065509 -0.34227572 2.97065509 0 0 Z " fill="#B7A7C3" transform="translate(157,88)"/>
<path d="M0 0 C1.65 0 3.3 0 5 0 C5 1.32 5 2.64 5 4 C3.68 4 2.36 4 1 4 C0.67 2.68 0.34 1.36 0 0 Z " fill="#786884" transform="translate(115,178)"/>
<path d="M0 0 C2.97 0.495 2.97 0.495 6 1 C6 1.66 6 2.32 6 3 C3.36 3.33 0.72 3.66 -2 4 C-1.34 2.68 -0.68 1.36 0 0 Z " fill="#B2A8B4" transform="translate(72,108)"/>
<path d="M0 0 C1.32 0.33 2.64 0.66 4 1 C4.33 2.65 4.66 4.3 5 6 C2.5 4.6875 2.5 4.6875 0 3 C0 2.01 0 1.02 0 0 Z " fill="#5A5A5A" transform="translate(32,92)"/>
<path d="M0 0 C1.5625 1.5 1.5625 1.5 3 4 C2.96823234 6.77437543 2.50364148 9.25286467 2 12 C1.67 12 1.34 12 1 12 C0.01751476 7.9472484 -0.08159574 4.16138263 0 0 Z " fill="#C1BAC9" transform="translate(103,168)"/>
<path d="M0 0 C1.9375 0.5625 1.9375 0.5625 4 2 C4.75 5.625 4.75 5.625 5 9 C3 6 3 6 2 4 C1.34 4 0.68 4 0 4 C0 2.68 0 1.36 0 0 Z " fill="#D4C9DB" transform="translate(150,145)"/>
</svg>
